Fly_normalized_Motion_pl10
version=1
nRows=10
nColumns=43
inDegrees=yes
endheader
time		pelvis_tilt		pelvis_list		pelvis_rotation		pelvis_tx		pelvis_ty		pelvis_tz		hip_flexion_r		hip_adduction_r		hip_rotation_r		knee_angle_r		ankle_angle_r		subtalar_angle_r		mtp_angle_r		hip_flexion_l		hip_adduction_l		hip_rotation_l		knee_angle_l		ankle_angle_l		subtalar_angle_l		mtp_angle_l		lumbar_extension		lumbar_bending		lumbar_rotation		neck_flexion		neck_lateral_bending		neck_rotation		arm_flex_r		arm_add_r		arm_rot_r		elbow_flex_r		pro_sup_r		wrist_flex_r		wrist_dev_r		hand_finger_flex_r		arm_flex_l		arm_add_l		arm_rot_l		elbow_flex_l		pro_sup_l		wrist_flex_l		wrist_dev_l		hand_finger_flex_l		
0.565783		6.648802		-8.070302		95.782779		-0.028307		1.514753		0.989336		49.222982		-3.887295		-11.374658		-49.973636		-20.378872		-6.332531		22.542882		39.341407		-10.376863		-8.102353		-61.558672		-14.447502		3.577584		18.365425		-27.874769		5.918746		0.315795		-4.974233		4.574668		-2.070675		5.743342		-65.749225		2.068132		77.251460		120.225018		11.488893		1.273759		-28.251873		-2.992685		-68.391531		-0.464020		93.230966		120.167475		-6.700067		4.907874		-16.679503		
0.569848		6.532164		-7.951970		95.944271		-0.028112		1.507138		0.981447		48.468302		-3.973273		-11.486180		-48.494506		-20.516521		-6.088063		22.266363		38.888709		-10.220979		-8.468477		-59.540229		-14.943652		3.868815		18.030806		-27.920231		5.822029		0.351111		-4.909974		4.554178		-2.236791		0.071073		-66.158765		-1.522504		77.801787		120.846728		10.920512		0.814775		-28.127940		-8.703725		-69.238220		-4.223279		93.945953		121.221745		-6.804729		4.689553		-17.175885		
0.573914		6.408193		-7.835760		96.095073		-0.027865		1.499323		0.973523		47.729893		-4.033842		-11.531444		-47.035513		-20.756318		-5.782695		22.122759		38.406118		-10.060633		-8.840581		-57.523242		-15.499293		4.262641		17.828131		-27.956029		5.701649		0.411753		-4.882491		4.574344		-2.490732		-5.796941		-66.318336		-5.389131		78.313267		121.625417		10.581605		0.308464		-27.860671		-14.775612		-69.869058		-8.409512		94.641401		122.445003		-6.860686		4.378405		-17.476590		
0.577980		6.292235		-7.722547		96.239031		-0.027516		1.491321		0.965558		47.006148		-4.063866		-11.551692		-45.605388		-21.060472		-5.458498		22.084180		37.897889		-9.902504		-9.187802		-55.486058		-16.081651		4.713530		17.724618		-27.971349		5.569253		0.485174		-4.921149		4.616547		-2.797330		-11.665995		-66.252595		-9.294673		78.792981		122.453966		10.404325		-0.217198		-27.538924		-21.135845		-70.317404		-12.905464		95.296359		123.743763		-6.927595		4.006347		-17.670374		
0.582045		6.193139		-7.624585		96.394084		-0.027136		1.483103		0.957517		46.280526		-4.068405		-11.565010		-44.157544		-21.354390		-5.151938		22.131348		37.397294		-9.739291		-9.486712		-53.470610		-16.660239		5.175400		17.680728		-27.930582		5.448303		0.551242		-5.109422		4.610665		-3.071373		-17.347904		-65.887577		-13.097911		79.170149		123.210495		10.292226		-0.720398		-27.267787		-27.670757		-70.549683		-17.532365		95.882431		125.065289		-7.129348		3.600635		-17.806429		
0.586111		6.112141		-7.511187		96.561289		-0.026747		1.474639		0.949518		45.575698		-4.070992		-11.603333		-42.775948		-21.723046		-4.815088		22.220184		36.888202		-9.574296		-9.732427		-51.481066		-17.226582		5.582467		17.630369		-27.884008		5.347968		0.608283		-5.372080		4.606350		-3.364645		-22.790061		-65.390882		-16.630334		79.528849		123.932321		10.328176		-1.183319		-27.001016		-34.330768		-70.606627		-22.273583		96.430056		126.406571		-7.320573		3.165966		-17.816911		
0.590177		6.035080		-7.381004		96.730406		-0.026406		1.465959		0.941503		44.871130		-4.087692		-11.681243		-41.446461		-22.120793		-4.442277		22.325504		36.376156		-9.402405		-9.942394		-49.553165		-17.775865		5.917107		17.538833		-27.831683		5.265150		0.618957		-5.736993		4.605134		-3.593261		-27.876780		-64.816500		-19.759164		79.843463		124.604531		10.426057		-1.626447		-26.742767		-41.120284		-70.419767		-27.109740		96.944707		127.771151		-7.525150		2.713595		-17.768487		
0.594242		5.930203		-7.233799		96.886660		-0.026201		1.457114		0.933375		44.159666		-4.145180		-11.785968		-40.170394		-22.554619		-4.019617		22.450580		35.797233		-9.217425		-10.223973		-47.595183		-18.301427		6.190760		17.367126		-27.797817		5.157770		0.423086		-6.047270		4.767645		-3.721661		-32.196323		-64.173899		-22.173205		80.080358		125.248961		10.572764		-2.064515		-26.430674		-48.148948		-69.504697		-32.383462		97.579381		129.167059		-7.677354		2.223524		-17.651236		
0.598308		5.715826		-7.028194		96.960995		-0.025697		1.448248		0.925270		43.372911		-4.249256		-11.901137		-38.861120		-23.059317		-3.544041		22.600236		35.115252		-8.984244		-10.559669		-45.635823		-18.878571		6.449353		17.049535		-27.817742		4.854127		0.003630		-6.458927		4.889793		-3.367274		-35.304227		-63.687432		-23.251330		79.965067		125.858332		10.731263		-2.507368		-26.002242		-55.602003		-68.306676		-38.019593		98.309531		130.629632		-7.640499		1.703974		-17.462011		
0.602374		5.724442		-6.973495		97.163600		-0.025435		1.438818		0.917076		42.682980		-4.217228		-12.092368		-37.486959		-23.262805		-3.093104		22.634034		34.724258		-8.886370		-10.748208		-43.834481		-19.274367		6.441579		16.834996		-27.586159		4.874912		-0.138471		-7.008654		4.806559		-3.336027		-39.396667		-62.901762		-25.263747		80.065026		125.825818		10.559341		-2.726350		-25.939538		-61.358769		-67.233042		-41.691257		98.629312		131.837887		-8.119619		1.112976		-17.522467		
